<svg version="1.1" preserveAspectRatio="none" xmlns="http://www.w3.org/2000/svg" width="500" height="500" viewBox="0 0 500 500"><rect width="100%" height="100%" fill="#F7F7F7" fill-opacity="1"/><svg viewBox="47.4063 180.1729 422.7335 166" width="333" height="130.76323499320495" x="83.5px" y="184.6184px" xmlns="http://www.w3.org/2000/svg" xmlns:xlink="http://www.w3.org/1999/xlink" preserveAspectRatio="none"><defs></defs><style>.companyName {fill:#282727;fill-opacity:1;}.icon3-str {stroke:#E17350;stroke-opacity:1;}.shape {fill:#F3CCD5;fill-opacity:0.95;}.shapeStroke-str {stroke:#282727;stroke-opacity:0.1;}.text {fill:#282727;fill-opacity:1;}</style><g opacity="1" transform="rotate(0 47.4063 180.1729)">
<svg width="166" height="166" x="47.4063" y="180.1729" version="1.1" preserveAspectRatio="none" viewBox="0 0 166 166">
  <defs><rect x="0" y="0" width="166" height="166" rx="0px" ry="0px" id="id-o0jQam8yd1707196689822"></rect></defs><use class="shape shapeStroke-str" style="stroke-width:0;" xlink:href="#id-o0jQam8yd1707196689822"></use>
</svg>
</g><g opacity="1" transform="rotate(0 87.4063 286.1729)">
<svg width="186.76" height="20" x="87.4063" y="286.1729" version="1.1" preserveAspectRatio="none" viewBox="4.56 -29.68 349.52 37.44">
  <g transform="matrix(1 0 0 1 0 0)" class="text"><path id="id-6izo4zJp15" d="M7.52-2.56L24.36-2.56L24.36 0L4.56 0L4.56-28L23.76-28L23.76-25.44L7.52-25.44L7.52-15.48L22-15.48L22-12.96L7.52-12.96L7.52-2.56Z M48.36-29.68L51.20-29.68L51.20 0L48.48 0L48.48-4.16Q47.20-2.04 45.10-0.92Q43 0.20 40.36 0.20L40.36 0.20Q37.40 0.20 35-1.16Q32.60-2.52 31.24-4.96Q29.88-7.40 29.88-10.52L29.88-10.52Q29.88-13.64 31.24-16.08Q32.60-18.52 35-19.86Q37.40-21.20 40.36-21.20L40.36-21.20Q42.92-21.20 44.98-20.14Q47.04-19.08 48.36-17.04L48.36-17.04L48.36-29.68ZM40.60-2.32Q42.80-2.32 44.58-3.34Q46.36-4.36 47.38-6.24Q48.40-8.12 48.40-10.52L48.40-10.52Q48.40-12.92 47.38-14.80Q46.36-16.68 44.58-17.70Q42.80-18.72 40.60-18.72L40.60-18.72Q38.36-18.72 36.58-17.70Q34.80-16.68 33.78-14.80Q32.76-12.92 32.76-10.52L32.76-10.52Q32.76-8.12 33.78-6.24Q34.80-4.36 36.58-3.34Q38.36-2.32 40.60-2.32L40.60-2.32Z M76.84-21.04L79.68-21.04L79.68 0L76.96 0L76.96-3.84Q75.84-1.92 73.88-0.86Q71.92 0.20 69.40 0.20L69.40 0.20Q65.28 0.20 62.90-2.10Q60.52-4.40 60.52-8.84L60.52-8.84L60.52-21.04L63.36-21.04L63.36-9.12Q63.36-5.80 65-4.08Q66.64-2.36 69.68-2.36L69.68-2.36Q73-2.36 74.92-4.38Q76.84-6.40 76.84-10L76.84-10L76.84-21.04Z M97.96 0.20Q94.84 0.20 92.38-1.16Q89.92-2.52 88.52-4.98Q87.12-7.44 87.12-10.52L87.12-10.52Q87.12-13.60 88.52-16.04Q89.92-18.48 92.38-19.84Q94.84-21.20 97.96-21.20L97.96-21.20Q100.68-21.20 102.82-20.14Q104.96-19.08 106.20-17.04L106.20-17.04L104.08-15.60Q103.04-17.16 101.44-17.94Q99.84-18.72 97.96-18.72L97.96-18.72Q95.68-18.72 93.86-17.70Q92.04-16.68 91.02-14.80Q90-12.92 90-10.52L90-10.52Q90-8.08 91.02-6.22Q92.04-4.36 93.86-3.34Q95.68-2.32 97.96-2.32L97.96-2.32Q99.84-2.32 101.44-3.08Q103.04-3.84 104.08-5.40L104.08-5.40L106.20-3.96Q104.96-1.92 102.80-0.86Q100.64 0.20 97.96 0.20L97.96 0.20Z M120.72-21.20Q124.84-21.20 127.04-19.14Q129.24-17.08 129.24-13.04L129.24-13.04L129.24 0L126.52 0L126.52-3.28Q125.56-1.64 123.70-0.72Q121.84 0.20 119.28 0.20L119.28 0.20Q115.76 0.20 113.68-1.48Q111.60-3.16 111.60-5.92L111.60-5.92Q111.60-8.60 113.54-10.24Q115.48-11.88 119.72-11.88L119.72-11.88L126.40-11.88L126.40-13.16Q126.40-15.88 124.88-17.30Q123.36-18.72 120.44-18.72L120.44-18.72Q118.44-18.72 116.60-18.06Q114.76-17.40 113.44-16.24L113.44-16.24L112.16-18.36Q113.76-19.72 116.00-20.46Q118.24-21.20 120.72-21.20L120.72-21.20ZM119.72-2.04Q122.12-2.04 123.84-3.14Q125.56-4.24 126.40-6.32L126.40-6.32L126.40-9.76L119.80-9.76Q114.40-9.76 114.40-6L114.40-6Q114.40-4.16 115.80-3.10Q117.20-2.04 119.72-2.04L119.72-2.04Z M148.64-3.32L149.64-1.28Q148.84-0.56 147.66-0.18Q146.48 0.20 145.20 0.20L145.20 0.20Q142.24 0.20 140.64-1.40Q139.04-3 139.04-5.92L139.04-5.92L139.04-18.64L135.28-18.64L135.28-21.04L139.04-21.04L139.04-25.64L141.88-25.64L141.88-21.04L148.28-21.04L148.28-18.64L141.88-18.64L141.88-6.08Q141.88-4.20 142.82-3.22Q143.76-2.24 145.52-2.24L145.52-2.24Q146.40-2.24 147.22-2.52Q148.04-2.80 148.64-3.32L148.64-3.32Z M156.40 0L156.40-21.04L159.24-21.04L159.24 0L156.40 0ZM157.84-25.64Q156.96-25.64 156.36-26.24Q155.76-26.84 155.76-27.68L155.76-27.68Q155.76-28.48 156.36-29.08Q156.96-29.68 157.84-29.68L157.84-29.68Q158.72-29.68 159.32-29.10Q159.92-28.52 159.92-27.72L159.92-27.72Q159.92-26.84 159.32-26.24Q158.72-25.64 157.84-25.64L157.84-25.64Z M177.36 0.20Q174.32 0.20 171.88-1.18Q169.44-2.56 168.04-5Q166.64-7.44 166.64-10.52L166.64-10.52Q166.64-13.60 168.04-16.04Q169.44-18.48 171.88-19.84Q174.32-21.20 177.36-21.20L177.36-21.20Q180.40-21.20 182.84-19.84Q185.28-18.48 186.66-16.04Q188.04-13.60 188.04-10.52L188.04-10.52Q188.04-7.44 186.66-5Q185.28-2.56 182.84-1.18Q180.40 0.20 177.36 0.20L177.36 0.20ZM177.36-2.32Q179.60-2.32 181.38-3.34Q183.16-4.36 184.16-6.24Q185.16-8.12 185.16-10.52L185.16-10.52Q185.16-12.92 184.16-14.80Q183.16-16.68 181.38-17.70Q179.60-18.72 177.36-18.72L177.36-18.72Q175.12-18.72 173.34-17.70Q171.56-16.68 170.54-14.80Q169.52-12.92 169.52-10.52L169.52-10.52Q169.52-8.12 170.54-6.24Q171.56-4.36 173.34-3.34Q175.12-2.32 177.36-2.32L177.36-2.32Z M206.16-21.20Q210.12-21.20 212.46-18.90Q214.80-16.60 214.80-12.20L214.80-12.20L214.80 0L211.96 0L211.96-11.92Q211.96-15.20 210.32-16.92Q208.68-18.64 205.64-18.64L205.64-18.64Q202.24-18.64 200.26-16.62Q198.28-14.60 198.28-11.04L198.28-11.04L198.28 0L195.44 0L195.44-21.04L198.16-21.04L198.16-17.16Q199.32-19.08 201.38-20.14Q203.44-21.20 206.16-21.20L206.16-21.20Z M231.48-21.20Q235.60-21.20 237.80-19.14Q240-17.08 240-13.04L240-13.04L240 0L237.28 0L237.28-3.28Q236.32-1.64 234.46-0.72Q232.60 0.20 230.04 0.20L230.04 0.20Q226.52 0.20 224.44-1.48Q222.36-3.16 222.36-5.92L222.36-5.92Q222.36-8.60 224.30-10.24Q226.24-11.88 230.48-11.88L230.48-11.88L237.16-11.88L237.16-13.16Q237.16-15.88 235.64-17.30Q234.12-18.72 231.20-18.72L231.20-18.72Q229.20-18.72 227.36-18.06Q225.52-17.40 224.20-16.24L224.20-16.24L222.92-18.36Q224.52-19.72 226.76-20.46Q229-21.20 231.48-21.20L231.48-21.20ZM230.48-2.04Q232.88-2.04 234.60-3.14Q236.32-4.24 237.16-6.32L237.16-6.32L237.16-9.76L230.56-9.76Q225.16-9.76 225.16-6L225.16-6Q225.16-4.16 226.56-3.10Q227.96-2.04 230.48-2.04L230.48-2.04Z M249.32 0L249.32-29.68L252.16-29.68L252.16 0L249.32 0Z M295.28 0L291.92-7.48L276.32-7.48L272.96 0L269.88 0L282.68-28L285.60-28L298.40 0L295.28 0ZM277.40-9.88L290.84-9.88L284.12-24.92L277.40-9.88Z M314.88-21.20Q317.84-21.20 320.24-19.86Q322.64-18.52 324.00-16.08Q325.36-13.64 325.36-10.52L325.36-10.52Q325.36-7.36 324.00-4.92Q322.64-2.48 320.26-1.14Q317.88 0.20 314.88 0.20L314.88 0.20Q312.32 0.20 310.26-0.86Q308.20-1.92 306.88-3.96L306.88-3.96L306.88 7.76L304.04 7.76L304.04-21.04L306.76-21.04L306.76-16.88Q308.04-18.96 310.14-20.08Q312.24-21.20 314.88-21.20L314.88-21.20ZM314.68-2.32Q316.88-2.32 318.68-3.34Q320.48-4.36 321.50-6.24Q322.52-8.12 322.52-10.52L322.52-10.52Q322.52-12.92 321.50-14.78Q320.48-16.64 318.68-17.68Q316.88-18.72 314.68-18.72L314.68-18.72Q312.44-18.72 310.66-17.68Q308.88-16.64 307.86-14.78Q306.84-12.92 306.84-10.52L306.84-10.52Q306.84-8.12 307.86-6.24Q308.88-4.36 310.66-3.34Q312.44-2.32 314.68-2.32L314.68-2.32Z M343.60-21.20Q346.56-21.20 348.96-19.86Q351.36-18.52 352.72-16.08Q354.08-13.64 354.08-10.52L354.08-10.52Q354.08-7.36 352.72-4.92Q351.36-2.48 348.98-1.14Q346.60 0.20 343.60 0.20L343.60 0.20Q341.04 0.20 338.98-0.86Q336.92-1.92 335.60-3.96L335.60-3.96L335.60 7.76L332.76 7.76L332.76-21.04L335.48-21.04L335.48-16.88Q336.76-18.96 338.86-20.08Q340.96-21.20 343.60-21.20L343.60-21.20ZM343.40-2.32Q345.60-2.32 347.40-3.34Q349.20-4.36 350.22-6.24Q351.24-8.12 351.24-10.52L351.24-10.52Q351.24-12.92 350.22-14.78Q349.20-16.64 347.40-17.68Q345.60-18.72 343.40-18.72L343.40-18.72Q341.16-18.72 339.38-17.68Q337.60-16.64 336.58-14.78Q335.56-12.92 335.56-10.52L335.56-10.52Q335.56-8.12 336.58-6.24Q337.60-4.36 339.38-3.34Q341.16-2.32 343.40-2.32L343.40-2.32Z"/></g>
</svg>
</g><g opacity="1" transform="rotate(0 87.4063 220.1729)">
<svg width="382.7335" height="50" x="87.4063" y="220.1729" version="1.1" preserveAspectRatio="none" viewBox="1.76 -26.4 202.08 26.4">
  <g transform="matrix(1 0 0 1 0 0)" class="companyName"><path id="id-D6z1nYkh8" d="M1.76 0L1.76-1.32Q3.24-1.32 3.88-1.50Q4.52-1.68 4.72-2.12Q4.92-2.56 4.92-3.56L4.92-3.56L4.92-22.80Q4.92-23.84 4.72-24.30Q4.52-24.76 3.88-24.92Q3.24-25.08 1.76-25.08L1.76-25.08L1.76-26.40L21.32-26.40L21.32-19.72L20.28-19.72Q19.80-21.76 19.24-22.82Q18.68-23.88 17.58-24.36Q16.48-24.84 14.44-24.84L14.44-24.84L11.32-24.84Q10.40-24.84 10.10-24.56Q9.80-24.28 9.80-23.48L9.80-23.48L9.80-14.68L13.76-14.68Q15.16-14.68 15.86-14.98Q16.56-15.28 16.86-15.96Q17.16-16.64 17.44-18.08L17.44-18.08L18.44-18.08L18.44-9.60L17.44-9.60Q17.16-11.04 16.86-11.68Q16.56-12.32 15.86-12.62Q15.16-12.92 13.76-12.92L13.76-12.92L9.80-12.92L9.80-4.20Q9.80-3 10.10-2.48Q10.40-1.96 11.38-1.76Q12.36-1.56 14.64-1.56L14.64-1.56Q16.92-1.56 18.22-2.12Q19.52-2.68 20.24-3.88Q20.96-5.08 21.60-7.36L21.60-7.36L22.60-7.36L22.12 0L1.76 0Z M45.32-6.72Q46.80-4.48 47.74-3.38Q48.68-2.28 49.58-1.80Q50.48-1.32 51.68-1.32L51.68-1.32L51.68 0L40.72 0L40.72-1.32L41.24-1.32Q42.16-1.32 42.16-1.84L42.16-1.84Q42.16-2.28 41.52-3.36L41.52-3.36L35.60-12.92L34.16-11.40L34.16-3.56Q34.16-2.56 34.36-2.10Q34.56-1.64 35.20-1.48Q35.84-1.32 37.28-1.32L37.28-1.32L37.28 0L26.12 0L26.12-1.32Q27.60-1.32 28.24-1.50Q28.88-1.68 29.08-2.12Q29.28-2.56 29.28-3.56L29.28-3.56L29.28-22.76Q29.28-23.80 29.08-24.26Q28.88-24.72 28.24-24.90Q27.60-25.08 26.12-25.08L26.12-25.08L26.12-26.40L37.28-26.40L37.28-25.08Q35.80-25.08 35.16-24.90Q34.52-24.72 34.34-24.26Q34.16-23.80 34.16-22.76L34.16-22.76L34.16-13.52L42.84-23.56Q43.44-24.28 43.44-24.68L43.44-24.68Q43.44-25.08 42.88-25.08L42.88-25.08L41.44-25.08L41.44-26.40L51.04-26.40L51.04-25.08Q49-25.08 47.16-24.06Q45.32-23.04 43.12-20.72L43.12-20.72L38.88-16.32L45.32-6.72Z M75.52-3.32Q76-2.08 76.56-1.70Q77.12-1.32 78.60-1.32L78.60-1.32L78.60 0L67.80 0L67.80-1.32L69.60-1.32Q70.16-1.32 70.44-1.60Q70.72-1.88 70.72-2.32L70.72-2.32Q70.72-2.64 70.60-3L70.60-3L68.28-9.72L60.12-9.72L57.88-2.88Q57.76-2.48 57.76-2.16L57.76-2.16Q57.76-1.32 58.84-1.32L58.84-1.32L60.80-1.32L60.80 0L52.48 0L52.48-1.32Q54.04-1.32 54.64-1.78Q55.24-2.24 55.72-3.52L55.72-3.52L64.04-26.40L67.44-26.40L75.52-3.32ZM60.56-11.04L67.84-11.04L64.20-21.68L64.08-21.68L60.56-11.04Z M81.20 0L81.20-1.32Q82.68-1.32 83.32-1.50Q83.96-1.68 84.16-2.12Q84.36-2.56 84.36-3.56L84.36-3.56L84.36-22.80Q84.36-23.84 84.16-24.28Q83.96-24.72 83.32-24.90Q82.68-25.08 81.20-25.08L81.20-25.08L81.20-26.40L92.56-26.40L92.56-25.08Q90.96-25.08 90.30-24.92Q89.64-24.76 89.44-24.30Q89.24-23.84 89.24-22.80L89.24-22.80L89.24-4.56Q89.24-3.12 89.62-2.50Q90-1.88 90.80-1.74Q91.60-1.60 93.56-1.60L93.56-1.60Q95.84-1.60 97.10-2.12Q98.36-2.64 99.08-3.82Q99.80-5 100.40-7.28L100.40-7.28L101.44-7.28L101 0L81.20 0Z M126.84-3.32Q127.32-2.08 127.88-1.70Q128.44-1.32 129.92-1.32L129.92-1.32L129.92 0L119.12 0L119.12-1.32L120.92-1.32Q121.48-1.32 121.76-1.60Q122.04-1.88 122.04-2.32L122.04-2.32Q122.04-2.64 121.92-3L121.92-3L119.60-9.72L111.44-9.72L109.20-2.88Q109.08-2.48 109.08-2.16L109.08-2.16Q109.08-1.32 110.16-1.32L110.16-1.32L112.12-1.32L112.12 0L103.80 0L103.80-1.32Q105.36-1.32 105.96-1.78Q106.56-2.24 107.04-3.52L107.04-3.52L115.36-26.40L118.76-26.40L126.84-3.32ZM111.88-11.04L119.16-11.04L115.52-21.68L115.40-21.68L111.88-11.04Z M139.36 0L131.56-23.08Q131.28-23.92 131.00-24.32Q130.72-24.72 130.16-24.90Q129.60-25.08 128.56-25.08L128.56-25.08L128.56-26.40L139.04-26.40L139.04-25.08L137.28-25.08Q136.32-25.08 136.32-24.36L136.32-24.36Q136.32-24.08 136.44-23.72L136.44-23.72L142.60-5.08L142.80-5.08L148.64-23.20Q148.88-23.92 148.88-24.32L148.88-24.32Q148.88-24.72 148.64-24.90Q148.40-25.08 147.88-25.08L147.88-25.08L145.96-25.08L145.96-26.40L154.24-26.40L154.24-25.08Q152.84-25.08 152.12-24.60Q151.40-24.12 150.96-22.92L150.96-22.92L142.84 0L139.36 0Z M171.44-26.40L179.92-26.40L179.92-25.08Q178.24-25.08 177.52-24.70Q176.80-24.32 176.16-23.12L176.16-23.12L169.88-10.76L169.88-3.60Q169.88-2.56 170.14-2.12Q170.40-1.68 171.16-1.50Q171.92-1.32 173.68-1.32L173.68-1.32L173.68 0L161.60 0L161.60-1.32Q163.36-1.32 164.12-1.50Q164.88-1.68 165.08-2.12Q165.28-2.56 165.28-3.60L165.28-3.60L165.28-10.36L158.88-23.08Q158.28-24.28 157.64-24.68Q157.00-25.08 155.60-25.08L155.60-25.08L155.60-26.40L166.48-26.40L166.48-25.08L164.56-25.08Q163.72-25.08 163.72-24.56L163.72-24.56Q163.72-24.32 163.92-23.84L163.92-23.84L168.96-12.88L169.08-12.88L173.88-23.68Q174.08-24.20 174.08-24.48L174.08-24.48Q174.08-25.08 173.24-25.08L173.24-25.08L171.44-25.08L171.44-26.40Z M200.76-3.32Q201.24-2.08 201.80-1.70Q202.36-1.32 203.84-1.32L203.84-1.32L203.84 0L193.04 0L193.04-1.32L194.84-1.32Q195.40-1.32 195.68-1.60Q195.96-1.88 195.96-2.32L195.96-2.32Q195.96-2.64 195.84-3L195.84-3L193.52-9.72L185.36-9.72L183.12-2.88Q183.00-2.48 183.00-2.16L183.00-2.16Q183.00-1.32 184.08-1.32L184.08-1.32L186.04-1.32L186.04 0L177.72 0L177.72-1.32Q179.28-1.32 179.88-1.78Q180.48-2.24 180.96-3.52L180.96-3.52L189.28-26.40L192.68-26.40L200.76-3.32ZM185.80-11.04L193.08-11.04L189.44-21.68L189.32-21.68L185.80-11.04Z"/></g>
</svg>
</g></svg></svg>